<svg width="1133.492" xmlns="http://www.w3.org/2000/svg" height="1131.371" fill="none"><rect rx="64" ry="64" x="316.807" y="315.893" transform="rotate(45 567.306 566.393)" width="501" height="501" class="fills"/><g class="strokes"><rect rx="64" ry="64" x="316.807" y="315.893" transform="rotate(45 567.306 566.393)" width="501" height="501" style="fill: none; stroke-width: 80; stroke: rgb(6, 26, 53); stroke-opacity: 1;" class="stroke-shape"/></g><path d="M612.562 1086.116c-24.977 24.977-65.533 24.977-90.51 0m0-1040.861c24.977-24.977 65.533-24.977 90.51 0" class="fills"/><g class="strokes"><path d="M612.562 1086.116c-24.977 24.977-65.533 24.977-90.51 0m0-1040.861c24.977-24.977 65.533-24.977 90.51 0" style="fill: none; stroke-width: 80; stroke: rgb(14, 216, 158); stroke-opacity: 1; stroke-linecap: round;" class="stroke-shape"/></g><path d="m635.896 458.912 98.134 98.134c5.158 5.159 5.158 13.534 0 18.693l-98.134 98.134" class="fills"/><g class="strokes"><path d="m635.896 458.912 98.134 98.134c5.158 5.159 5.158 13.534 0 18.693l-98.134 98.134" style="fill: none; stroke-width: 80; stroke: rgb(6, 26, 53); stroke-opacity: 1; stroke-linecap: round;" class="stroke-shape"/></g><path d="m506.496 680.237-98.135-98.134c-5.158-5.159-5.158-13.534 0-18.693l98.135-98.134" class="fills"/><g class="strokes"><path d="m506.496 680.237-98.135-98.134c-5.158-5.159-5.158-13.534 0-18.693l98.135-98.134" style="fill: none; stroke-width: 80; stroke: rgb(6, 26, 53); stroke-opacity: 1; stroke-linecap: round;" class="stroke-shape"/></g><path d="m745.498 176.777 210.717 213.546" class="fills"/><g class="strokes"><path d="m745.498 176.777 210.717 213.546" style="fill: none; stroke-width: 80; stroke: rgb(6, 26, 53); stroke-opacity: 1; stroke-linecap: round;" class="stroke-shape"/></g><path d="m179.105 743.169 210.718 213.546" class="fills"/><g class="strokes"><path d="m179.105 743.169 210.718 213.546" style="fill: none; stroke-width: 80; stroke: rgb(6, 26, 53); stroke-opacity: 1; stroke-linecap: round;" class="stroke-shape"/></g><path d="M390.53 176.777 176.984 387.495" class="fills"/><g class="strokes"><path d="M390.53 176.777 176.984 387.495" style="fill: none; stroke-width: 80; stroke: rgb(6, 26, 53); stroke-opacity: 1; stroke-linecap: round;" class="stroke-shape"/></g><path d="m746.205 956.715 210.718-213.546" class="fills"/><g class="strokes"><path d="m746.205 956.715 210.718-213.546" style="fill: none; stroke-width: 80; stroke: rgb(6, 26, 53); stroke-opacity: 1; stroke-linecap: round;" class="stroke-shape"/></g><circle cx="1065.61" cy="564.912" transform="rotate(45 1065.61 564.912)" style="fill: rgb(6, 205, 234); fill-opacity: 1;" r="48" class="fills"/><circle cx="67.882" cy="564.205" transform="rotate(45 67.882 564.205)" style="fill: rgb(6, 205, 234); fill-opacity: 1;" r="48" class="fills"/></svg>